<svg xmlns="http://www.w3.org/2000/svg" xml:space="preserve" width="450" height="179" style="shape-rendering:geometricPrecision;text-rendering:geometricPrecision;image-rendering:optimizeQuality;fill-rule:evenodd;clip-rule:evenodd" viewBox="0 0 2182.13 869.93"><defs><style>.fil4{fill:#38447a}.fil0,.fil2,.fil5{fill:#000;fill-rule:nonzero}.fil0,.fil2{fill:#38447a}.fil2{fill:red}</style></defs><g id="Слой_x0020_1"><g id="Vision_x0020_Group_x0020_Logo_x0020_-_x0020_Horizontal.pdf"><path class="fil0" d="M578.03 480.17V76.91h99.07c17.92 0 34.1 1.67 48.54 4.99 14.43 3.31 26.88 8.88 37.34 16.67 10.45 7.8 18.5 18.34 24.14 31.62 5.65 13.27 8.46 30.03 8.46 50.28 0 16.27-2.24 30.19-6.71 41.82-4.49 11.62-11.03 20.83-19.66 27.63-8.64 6.8-19.42 11.36-32.37 13.69 15.93 2.66 29.12 8.21 39.58 16.68 10.45 8.46 18.25 19.5 23.4 33.11 5.14 13.6 7.71 30.02 7.71 49.28 0 19.24-2.39 36.25-7.21 51.03-4.82 14.76-11.95 27.05-21.41 36.84-9.46 9.79-21.25 17.18-35.35 22.15-14.1 4.98-30.62 7.47-49.53 7.47h-116zm73.68-51.77h27.88c22.24 0 37.34-5.39 45.3-16.19 7.97-10.78 11.95-27.46 11.95-50.03 0-16.26-1.91-29.45-5.72-39.58-3.82-10.11-10.13-17.66-18.93-22.65-8.79-4.98-20.48-7.46-35.09-7.46h-25.39V428.4zm0-186.7h24.89c14.61 0 25.89-2.15 33.86-6.47 7.96-4.32 13.52-10.95 16.68-19.91 3.14-8.97 4.72-20.25 4.72-33.85 0-14.28-2.4-25.31-7.22-33.11-4.81-7.8-12.02-13.11-21.65-15.94-9.63-2.82-21.91-4.23-36.84-4.23h-14.44V241.7zM856.32 480.17V76.91h60.24v254.41l110.52-254.41h49.29v403.26h-60.73V221.79L904.62 480.17zM1233.69 486.15c-24.9 0-45.06-4.73-60.49-14.2-15.43-9.45-26.64-22.89-33.6-40.31-6.97-17.43-10.45-37.76-10.45-60.99v-13.94h68.7V371.65c.33 18.58 2.98 32.68 7.97 42.31 4.97 9.63 14.59 14.44 28.87 14.44 10.29 0 18-2.5 23.15-7.47 5.14-4.98 8.63-12.2 10.45-21.66 1.83-9.46 2.74-20.82 2.74-34.1 0-20.58-3.73-36.92-11.2-49.04-7.48-12.12-22.33-18.67-44.56-19.66-1-.33-2.58-.5-4.74-.5h-14.68v-48.79h17.43c22.56-.99 37.84-6.97 45.79-17.92 7.97-10.96 11.96-26.89 11.96-47.8 0-16.92-2.9-30.2-8.72-39.83-5.8-9.61-16.18-14.43-31.11-14.43-13.94 0-23.81 4.98-29.62 14.94-5.81 9.95-9.21 23.06-10.21 39.32v17.93h-68.71v-19.42c0-22.9 4.32-42.4 12.95-58.49 8.63-16.1 20.99-28.38 37.1-36.84 16.09-8.47 35.43-12.7 57.99-12.7 22.9 0 42.4 4.23 58.5 12.7 16.1 8.46 28.46 20.57 37.08 36.33 8.64 15.77 12.95 35.1 12.95 58.01 0 23.9-5.07 43.64-15.18 59.24-10.12 15.6-22.82 25.55-38.09 29.87 10.29 3.98 19.5 9.88 27.64 17.67 8.13 7.8 14.44 18.09 18.91 30.87 4.49 12.79 6.72 28.62 6.72 47.54 0 24.23-3.49 45.56-10.46 63.97-6.95 18.42-18.16 32.7-33.59 42.82-15.44 10.12-35.93 15.19-61.49 15.19zM1390.02 480.17V76.91h60.23v254.41l110.52-254.41h49.3v403.26h-60.74V221.79L1438.3 480.17zM1781.32 485.65c-28.55 0-51.27-5.31-68.2-15.94-16.93-10.61-29.05-25.88-36.34-45.79-7.31-19.92-10.96-43.48-10.96-70.71V202.38c0-27.22 3.65-50.54 10.96-69.96 7.29-19.41 19.41-34.26 36.34-44.55 16.93-10.28 39.65-15.43 68.2-15.43 29.21 0 52.19 5.15 68.95 15.43 16.76 10.29 28.88 25.14 36.34 44.55 7.46 19.42 11.21 42.74 11.21 69.96v151.34c0 26.89-3.75 50.19-11.21 69.95-7.46 19.74-19.58 35.01-36.34 45.8-16.76 10.79-39.74 16.18-68.95 16.18zm0-54.27c12.28 0 21.33-2.66 27.14-7.96 5.8-5.32 9.7-12.61 11.69-21.91 1.99-9.29 2.99-19.41 2.99-30.36v-185.7c0-11.28-1-21.41-2.99-30.37-1.99-8.96-5.89-16.01-11.69-21.15-5.81-5.16-14.86-7.73-27.14-7.73-11.62 0-20.42 2.57-26.39 7.73-5.97 5.14-9.95 12.19-11.95 21.15-1.99 8.96-2.98 19.09-2.98 30.37v185.7c0 10.95.9 21.07 2.73 30.36 1.83 9.3 5.73 16.59 11.71 21.91 5.97 5.3 14.93 7.96 26.88 7.96zM1953.07 480.17V76.91h73.18v168.78h82.15V76.91h73.68v403.26h-73.68V297.96h-82.15v182.21z"/><path style="fill:#d2d3d5" d="m247.41 0 248.81 73.52v631.79l-248.82.62V0z"/><path class="fil2" d="m496.21 705.93-496.2-.41 248.86-67.41z"/><path style="fill:#a82424" d="m496.21 705.93-247.4-.2v-67.62h.03z"/><path class="fil4" d="m251.65 0 244.56 77.04v31.56L251.64 37.17V0zM244.56 0 0 77.04v31.56l244.56-71.43V0zM435.03 200.7l61.18 19.27v31.55l-72.12-21.06zM251.64 142.92l128.65 40.53-11.05 30.99-117.6-34.35zM58.85 201.42 0 219.97v31.55l69.85-20.4zM244.56 142.92l-131.27 41.35 11.24 30.87 120.03-35.05zM387.93 328.78l108.28 34.11v31.55l-119.58-34.93zM251.64 285.84l82.86 26.1-11.38 31.95-71.48-20.88zM106.25 329.42 0 362.89v31.55l117.6-34.35zM244.56 285.84l-84.6 26.66 11.59 31.84 73.01-21.33zM315.53 525.65l180.68 56.92v31.55l-192.53-56.23zM251.64 505.52l12.48 3.94-11.9 33.4-.58-.17zM179.1 526.15 0 582.57v31.55l191.01-55.79zM244.56 505.52l-12.88 4.07 12.13 33.32.75-.22zM459.17 135.06l37.04 11.68v31.54l-47.81-13.96zM251.64 69.69l152.1 47.92-10.86 30.49-141.24-41.24zM34.57 135.85 0 146.74v31.55l45.38-13.25zM244.56 69.69 89.39 118.58l11.05 30.37 144.12-42.09zM412.07 263.15l84.14 26.51v31.54l-95.26-27.82zM251.64 212.61l106.32 33.5-11.21 31.45-95.11-27.79zM81.96 263.83 0 289.66v31.55l93.14-27.2zM244.56 212.61 136.05 246.8l11.4 31.34 97.11-28.37zM339.67 460.02l156.54 49.32v31.56L328 491.76zM251.64 432.3l35.94 11.31-11.72 32.92-24.22-7.07zM154.82 460.57 0 509.34v31.56l166.55-48.65zM244.56 432.3l-36.78 11.58 11.95 32.83 24.83-7.25zM364.97 391.23l131.23 41.35v31.55l-142.72-41.68zM251.64 355.53l60.54 19.07-11.55 32.4-48.99-14.3zM129.36 391.83 0 432.58v31.54l140.89-41.14zM244.56 355.53l-61.85 19.49 11.76 32.31 50.09-14.63zM251.64 575.21l244.57 77.05v31.55l-244.57-71.43zM244.56 575.21 0 652.26v31.55l244.56-71.43z"/><path class="fil2" d="M578.03 703.61V548.27h71.92v25.5h-37.6v129.84zM939 703.61V548.27h52.17c9.33 0 17 1.75 23.01 5.27 6.01 3.51 10.48 8.63 13.43 15.34 2.94 6.72 4.41 14.87 4.41 24.45 0 12.02-1.98 21.19-5.95 27.52-3.96 6.34-9.33 10.71-16.1 13.14-6.79 2.44-14.39 3.65-22.83 3.65h-13.81v65.97H939zm34.33-89.94h11.51c4.22 0 7.42-.78 9.59-2.31s3.62-3.83 4.31-6.9c.71-3.07 1.07-6.97 1.07-11.7 0-3.97-.3-7.44-.87-10.46-.58-3-1.96-5.4-4.12-7.19-2.17-1.79-5.56-2.68-10.16-2.68h-11.33v41.24zM1319.94 734.1v-22.63c5.49.13 10.28-.14 14.37-.77 4.1-.64 7.41-1.85 9.97-3.64 2.56-1.79 4.25-4.25 5.08-7.39.83-3.13.68-7.06-.48-11.79l-34.89-139.61h31.83l13.42 63.85 6.34 41.63 4.59-41.81 11.32-63.67h32.22l-32.22 144.79c-1.54 7.04-3.32 12.98-5.36 17.84-2.06 4.86-4.58 8.85-7.58 11.98-3.01 3.14-6.68 5.53-11.03 7.19-4.35 1.67-9.63 2.78-15.83 3.35-6.19.58-13.45.81-21.75.68zM1700.27 703.61V548.27h93.02v155.34h-33.76v-130.8h-25.5v130.8zM2089.06 703.61V548.27h93.02v155.34h-33.75v-130.8h-25.51v130.8z"/><path class="fil5" d="M55.53 857.27c0 .97-.01 1.81-.08 2.48-.05.66-.15 1.26-.27 1.74-.11.5-.26.92-.46 1.27-.2.33-.49.73-.93 1.16-.42.44-1.25 1.02-2.46 1.71-1.23.68-2.7 1.35-4.48 1.98-1.76.63-3.76 1.15-6.03 1.57-2.25.42-4.71.64-7.34.64-5.14 0-9.77-.8-13.92-2.37-4.14-1.6-7.67-3.97-10.57-7.12-2.91-3.16-5.12-7.09-6.66-11.82C.77 843.8.01 838.3.01 832.04c0-6.38.85-12.05 2.54-17.01 1.72-4.96 4.09-9.11 7.14-12.49 3.05-3.36 6.72-5.9 11-7.64 4.26-1.75 8.98-2.62 14.13-2.62 2.08 0 4.09.17 6.03.54 1.94.33 3.72.79 5.36 1.37 1.65.55 3.12 1.19 4.45 1.93 1.3.76 2.23 1.39 2.75 1.9.52.54.87.98 1.07 1.32.2.35.36.79.46 1.32.12.56.22 1.2.27 1.93.06.73.09 1.62.09 2.72 0 1.13-.05 2.14-.12 2.94-.08.82-.21 1.46-.4 1.96-.2.51-.44.88-.69 1.1-.28.24-.6.36-.93.36-.58 0-1.31-.34-2.2-1.02-.9-.67-2.04-1.42-3.45-2.25-1.4-.84-3.1-1.59-5.06-2.27-1.93-.67-4.25-1-6.97-1-2.97 0-5.63.6-7.97 1.82-2.34 1.23-4.32 2.95-5.96 5.21-1.65 2.27-2.9 5.02-3.75 8.22-.85 3.2-1.27 6.82-1.27 10.84 0 4.4.46 8.23 1.37 11.47.91 3.2 2.19 5.88 3.88 7.96 1.67 2.09 3.71 3.65 6.09 4.65 2.37 1.04 5.05 1.55 8.03 1.55 2.69 0 5.03-.32 7.01-.95 1.96-.63 3.64-1.35 5.06-2.1 1.42-.77 2.57-1.46 3.48-2.09.92-.6 1.61-.93 2.12-.93.38 0 .7.09.91.25.24.15.44.45.59.93.14.46.26 1.11.35 1.94.08.85.11 1.96.11 3.37zM155.76 799.74c0 1.12-.05 2.08-.15 2.88-.09.8-.23 1.43-.43 1.91-.2.49-.44.85-.73 1.07-.28.23-.62.36-.96.36h-18.78v60.59c0 .37-.12.73-.37 1.04-.26.3-.69.56-1.25.76-.59.18-1.38.33-2.37.45-.99.13-2.21.18-3.68.18-1.47 0-2.7-.05-3.69-.18-1-.12-1.78-.27-2.36-.45-.58-.2-.99-.46-1.25-.76-.26-.31-.37-.67-.37-1.04v-60.59h-18.79c-.38 0-.72-.13-.99-.36-.26-.22-.49-.58-.7-1.07-.17-.48-.34-1.11-.43-1.91-.1-.8-.14-1.76-.14-2.88 0-1.16.04-2.15.14-2.96.09-.81.26-1.47.43-1.95.21-.49.44-.82.7-1.04.27-.22.61-.32.99-.32h52.91c.34 0 .66.1.96.32.29.22.53.55.73 1.04.2.48.34 1.14.43 1.95.1.81.15 1.8.15 2.96zM255.48 816.29c0 4.25-.66 7.98-1.99 11.23-1.31 3.27-3.22 6-5.76 8.23-2.51 2.23-5.61 3.92-9.28 5.09-3.66 1.16-7.99 1.74-12.96 1.74h-6.29v23.97c0 .39-.1.73-.37 1.04-.26.3-.67.56-1.25.76-.56.2-1.34.33-2.32.45-.95.12-2.2.17-3.68.17-1.47 0-2.69-.05-3.69-.17-.98-.12-1.76-.27-2.34-.45-.57-.2-.99-.46-1.21-.76-.24-.31-.35-.68-.35-1.04v-67.61c0-1.83.47-3.19 1.42-4.11.96-.9 2.2-1.36 3.74-1.36h17.73c1.78 0 3.49.05 5.09.2 1.61.14 3.53.44 5.79.87 2.25.45 4.52 1.27 6.82 2.48 2.29 1.19 4.27 2.72 5.91 4.56 1.62 1.83 2.87 3.98 3.72 6.46.85 2.45 1.27 5.2 1.27 8.25zm-15.94 1.12c0-2.64-.47-4.82-1.41-6.52-.93-1.7-2.08-2.98-3.45-3.78-1.36-.82-2.78-1.34-4.28-1.55-1.5-.23-3.04-.31-4.64-.31h-6.56v25.56h6.91c2.46 0 4.49-.33 6.16-1 1.64-.64 3.02-1.57 4.06-2.77 1.05-1.17 1.84-2.59 2.4-4.24.54-1.65.81-3.45.81-5.39zM374.13 830.17c0 6.23-.77 11.79-2.32 16.71-1.55 4.92-3.84 9.1-6.92 12.51-3.04 3.42-6.83 6.05-11.33 7.85-4.52 1.8-9.73 2.69-15.66 2.69-5.84 0-10.94-.77-15.28-2.3-4.36-1.52-7.99-3.85-10.9-6.99-2.89-3.13-5.08-7.12-6.53-11.96-1.43-4.83-2.18-10.55-2.18-17.18 0-6.06.78-11.53 2.32-16.39 1.56-4.86 3.85-8.98 6.92-12.39 3.05-3.41 6.85-6.02 11.34-7.82 4.52-1.83 9.75-2.74 15.72-2.74 5.69 0 10.7.76 15.05 2.26 4.35 1.5 7.99 3.82 10.91 6.97 2.94 3.13 5.13 7.08 6.62 11.86 1.49 4.8 2.24 10.43 2.24 16.92zm-16.05.78c0-3.95-.33-7.54-.94-10.76-.61-3.24-1.66-6.01-3.14-8.31-1.5-2.3-3.47-4.09-5.95-5.35-2.48-1.24-5.57-1.89-9.28-1.89-3.74 0-6.87.72-9.38 2.13-2.52 1.4-4.55 3.31-6.1 5.66-1.54 2.37-2.64 5.12-3.27 8.27-.63 3.17-.94 6.49-.94 10.02 0 4.11.31 7.8.93 11.07.61 3.27 1.66 6.06 3.12 8.4 1.47 2.32 3.43 4.08 5.91 5.31 2.48 1.21 5.59 1.83 9.33 1.83 3.75 0 6.89-.7 9.38-2.11 2.52-1.38 4.56-3.28 6.1-5.68 1.55-2.4 2.64-5.19 3.28-8.39.62-3.19.95-6.6.95-10.2zM487.43 866.67c0 .37-.12.7-.37 1-.26.3-.69.54-1.25.74-.58.18-1.38.34-2.36.43-1 .1-2.22.15-3.69.15-1.47 0-2.69-.05-3.68-.15-1-.09-1.77-.25-2.32-.43-.59-.2-.98-.44-1.19-.74-.24-.3-.36-.63-.36-1v-39.63c0-1.51.02-2.99.06-4.43.04-1.46.1-2.76.18-3.88h-.12c-.32.54-.68 1.18-1.11 1.89-.44.71-.89 1.46-1.37 2.27-.49.79-1.01 1.59-1.55 2.43-.55.84-1.08 1.64-1.62 2.41l-26.1 38.99c-.32.42-.63.8-.96 1.09-.34.32-.75.56-1.29.74-.5.17-1.14.29-1.9.35-.75.07-1.73.09-2.92.09-1.52 0-2.74-.05-3.65-.15-.94-.09-1.67-.25-2.19-.43-.53-.2-.89-.47-1.07-.76-.2-.31-.29-.69-.29-1.11v-71.11c0-.37.11-.71.37-1.01.26-.29.68-.54 1.27-.73.6-.18 1.39-.34 2.37-.44.94-.09 2.17-.13 3.63-.13 1.5 0 2.75.04 3.69.13.97.1 1.75.26 2.33.44.56.19.98.44 1.2.73.24.3.35.64.35 1.01v39.85c0 1.24-.01 2.56-.05 3.95-.04 1.41-.1 2.76-.19 4.07h.13c.67-1.16 1.51-2.57 2.51-4.19 1.01-1.62 2.07-3.21 3.14-4.75l26.14-38.99c.28-.38.56-.71.87-1.01.31-.29.74-.53 1.26-.73.5-.18 1.16-.33 1.94-.4.77-.07 1.76-.11 2.97-.11 1.46 0 2.65.04 3.56.13.91.1 1.62.26 2.19.44.53.19.91.44 1.12.73.22.3.32.65.32 1.07v71.18zM593.08 799.74c0 1.12-.04 2.08-.14 2.88-.1.8-.23 1.43-.43 1.91-.21.49-.44.85-.73 1.07-.29.23-.62.36-.96.36h-18.79v60.59c0 .37-.12.73-.37 1.04-.27.3-.68.56-1.25.76-.58.18-1.37.33-2.36.45-.99.13-2.22.18-3.69.18-1.47 0-2.7-.05-3.68-.18-1-.12-1.79-.27-2.36-.45-.58-.2-1-.46-1.25-.76a1.53 1.53 0 0 1-.37-1.04v-60.59h-18.8c-.37 0-.71-.13-.99-.36-.25-.22-.5-.58-.7-1.07-.17-.48-.33-1.11-.43-1.91-.1-.8-.13-1.76-.13-2.88 0-1.16.03-2.15.13-2.96s.26-1.47.43-1.95c.2-.49.45-.82.7-1.04.28-.22.62-.32.99-.32h52.92c.34 0 .66.1.96.32.29.22.52.55.73 1.04.2.48.33 1.14.43 1.95.1.81.14 1.8.14 2.96zM685.78 862.62c0 1.13-.04 2.05-.13 2.83-.11.76-.24 1.37-.44 1.83-.2.47-.43.81-.74 1.02-.27.23-.61.33-.94.33h-37.7c-1.27 0-2.34-.38-3.21-1.14-.87-.75-1.31-1.98-1.31-3.68v-65.52c0-1.7.44-2.93 1.31-3.7.87-.75 1.94-1.12 3.21-1.12h37.51c.34 0 .66.1.94.3.26.19.5.53.7 1.01.17.48.33 1.11.43 1.87.1.76.13 1.71.13 2.89 0 1.08-.03 2-.13 2.77-.1.75-.23 1.37-.43 1.83-.2.46-.44.8-.7 1.02-.28.22-.6.32-.94.32h-26.81v18.32h22.6c.35 0 .67.1.94.31.31.22.54.54.74.99.2.44.34 1.04.44 1.8.1.76.14 1.67.14 2.74 0 1.13-.04 2.07-.14 2.8s-.24 1.32-.44 1.76c-.2.46-.43.78-.74.95-.27.19-.59.3-.94.3h-22.6v21.17h27c.35 0 .67.09.94.31.31.21.54.55.74 1.03.2.46.33 1.07.44 1.82.09.78.13 1.71.13 2.84zM791.04 866.67c0 .37-.12.7-.36 1-.21.3-.63.54-1.21.74-.57.18-1.37.34-2.36.43-.99.1-2.21.15-3.68.15-1.51 0-2.76-.05-3.73-.15-.94-.09-1.74-.25-2.32-.43-.56-.2-.99-.44-1.21-.74-.22-.3-.35-.63-.35-1v-60.72h-16.05c-1.1 8.89-2.2 16.63-3.33 23.28-1.11 6.61-2.32 12.3-3.62 17.01-1.26 4.75-2.69 8.63-4.21 11.64-1.53 3.03-3.29 5.43-5.23 7.19-1.97 1.77-4.19 2.98-6.66 3.63-2.47.65-5.28 1-8.4 1-.61 0-1.1-.08-1.54-.25-.42-.13-.75-.43-1.01-.86-.26-.42-.43-1.02-.55-1.79-.12-.77-.18-1.76-.18-2.95 0-1.67.04-3.01.12-4.04.07-1.01.22-1.8.4-2.36.2-.58.45-.96.77-1.13.3-.2.67-.3 1.1-.3 1.2 0 2.36-.24 3.46-.73 1.11-.48 2.18-1.43 3.21-2.87 1.03-1.43 2.02-3.46 2.97-6.05.95-2.6 1.88-6.01 2.8-10.27.91-4.24 1.82-9.42 2.73-15.52.92-6.1 1.85-13.36 2.78-21.75.23-2 .69-3.38 1.38-4.17.7-.79 1.73-1.19 3.08-1.19h36.84c1.41 0 2.48.4 3.23 1.19.75.79 1.13 2 1.13 3.62v68.39zM902.04 843.71c0 3.57-.53 6.84-1.6 9.82-1.06 2.98-2.77 5.58-5.15 7.8-2.41 2.24-5.49 4.01-9.34 5.31-3.83 1.34-9.08 1.99-15.73 1.99h-18.78c-.65 0-1.26-.08-1.82-.27-.55-.17-1.05-.46-1.49-.87-.41-.41-.75-.91-1.01-1.5-.25-.61-.37-1.33-.37-2.18v-68.38c0-.37.12-.71.37-1.01.26-.3.67-.53 1.27-.74.6-.17 1.39-.33 2.38-.44.99-.08 2.18-.12 3.63-.12 1.48 0 2.73.04 3.68.12.97.11 1.74.27 2.32.44.58.21.99.44 1.21.74.24.3.35.64.35 1.01v25.62h10.54c5.7 0 10.24.51 13.61 1.5 3.36.98 6.22 2.43 8.58 4.38 2.34 1.94 4.16 4.32 5.42 7.14 1.3 2.83 1.93 6.03 1.93 9.64zm-15.69 1.27c0-1.88-.28-3.57-.82-5.04-.55-1.46-1.39-2.71-2.49-3.76-1.13-1.03-2.58-1.82-4.35-2.39-1.76-.56-4.39-.83-7.88-.83h-8.85v23.78h9.15c3.64 0 6.35-.36 8.16-1.08 1.8-.71 3.2-1.65 4.22-2.78 1.01-1.14 1.74-2.39 2.19-3.78.44-1.38.67-2.77.67-4.12zM1010.47 866.55c0 .37-.12.73-.37 1.04-.27.3-.68.56-1.26.76-.57.17-1.35.33-2.32.46-.95.11-2.18.17-3.63.17-1.5 0-2.75-.06-3.74-.17-.99-.13-1.74-.29-2.32-.46-.56-.2-.95-.46-1.21-.76-.26-.31-.38-.67-.38-1.04v-30.38h-28.18v30.38c0 .37-.11.73-.35 1.04-.23.3-.63.56-1.21.76-.58.17-1.36.33-2.32.46-.95.11-2.2.17-3.7.17-1.46 0-2.69-.06-3.67-.17-1-.13-1.78-.29-2.34-.46-.57-.2-1-.46-1.25-.76-.27-.31-.38-.67-.38-1.04v-71c0-.37.11-.73.38-1.05.25-.3.68-.55 1.25-.75.56-.2 1.34-.35 2.34-.46.98-.12 2.21-.18 3.67-.18 1.5 0 2.75.06 3.7.18.96.11 1.74.28 2.32.46.58.2.98.45 1.21.75.24.32.35.68.35 1.05v27.65h28.18v-27.65c0-.37.12-.73.38-1.05.26-.3.65-.55 1.21-.75.58-.18 1.33-.35 2.32-.46.99-.12 2.24-.18 3.74-.18 1.45 0 2.68.06 3.63.18.97.11 1.75.26 2.32.46.58.2.99.45 1.26.75.25.32.37.68.37 1.05v71zM1127.71 862.93c.46 1.39.75 2.51.88 3.31.12.82-.05 1.44-.46 1.85-.44.4-1.19.66-2.28.75-1.07.09-2.58.14-4.46.14-1.99 0-3.53-.02-4.63-.09-1.1-.05-1.93-.17-2.52-.35-.58-.17-.98-.41-1.22-.73-.23-.3-.43-.72-.57-1.21l-4.94-15.1h-28.33l-4.75 14.69c-.15.55-.35 1-.61 1.36-.23.38-.65.65-1.21.88-.55.21-1.34.35-2.38.43-1.02.07-2.37.12-4.03.12-1.79 0-3.18-.06-4.2-.17-1-.12-1.7-.4-2.07-.84-.4-.46-.53-1.09-.42-1.9.12-.81.42-1.89.87-3.26l23.15-66.69c.22-.64.5-1.19.82-1.58.29-.42.79-.71 1.46-.93.69-.22 1.62-.36 2.84-.42 1.18-.06 2.77-.08 4.75-.08 2.28 0 4.11.02 5.45.08 1.37.06 2.42.2 3.17.42.76.22 1.3.53 1.62.95.33.43.63 1.01.84 1.75l23.23 66.62zm-34.49-55.17h-.05l-10.47 31.98h21.09l-10.57-31.98zM1229.38 866.67c0 .37-.12.7-.36 1-.22.3-.61.54-1.19.74-.55.18-1.33.34-2.32.43-.99.1-2.22.15-3.68.15-1.51 0-2.75-.05-3.73-.15-.98-.09-1.74-.25-2.34-.43-.61-.2-1.02-.44-1.25-.74-.23-.3-.36-.63-.36-1v-28.14h-5.64c-2.32 0-4.11.26-5.31.7a9.023 9.023 0 0 0-3.27 2.16c-.96.96-1.79 2.18-2.54 3.63-.73 1.44-1.45 3.16-2.14 5.13l-5.71 16.28c-.2.45-.43.85-.75 1.18-.32.33-.79.6-1.42.81-.65.22-1.47.36-2.52.45-1.06.07-2.38.12-4.01.12-1.79 0-3.17-.07-4.2-.19-1.03-.12-1.81-.27-2.36-.5-.54-.21-.87-.44-1.03-.71a1.73 1.73 0 0 1-.24-.87c0-.39.06-.87.2-1.43.13-.58.41-1.4.85-2.53l5.62-14.76c.74-1.93 1.5-3.62 2.27-5.06.78-1.43 1.62-2.72 2.57-3.86.96-1.13 1.96-2.11 3.02-2.88 1.07-.77 2.24-1.38 3.51-1.86-2.4-.65-4.53-1.5-6.37-2.58-1.84-1.07-3.38-2.36-4.66-3.88-1.24-1.53-2.2-3.29-2.84-5.3-.65-1.98-.96-4.22-.96-6.7 0-3.39.6-6.49 1.77-9.25 1.19-2.78 2.94-5.14 5.27-7.05 2.32-1.95 5.23-3.46 8.69-4.51 3.47-1.07 8.31-1.6 14.52-1.6h18.43c1.25 0 2.29.38 3.17 1.13.86.75 1.31 1.99 1.31 3.68v68.39zm-15.23-61.42h-7.88c-3.29 0-5.78.24-7.42.75-1.63.49-2.95 1.22-3.98 2.18a8.372 8.372 0 0 0-2.26 3.42c-.45 1.33-.69 2.82-.69 4.45 0 1.57.26 3.02.75 4.38a9.071 9.071 0 0 0 2.35 3.46c1.04.99 2.39 1.77 4.01 2.31 1.65.52 3.98.8 7.02.8h8.1v-21.75zM1367.65 866.6c0 .42-.12.78-.35 1.07-.22.3-.63.54-1.26.74-.59.18-1.4.34-2.42.43-1.01.09-2.29.14-3.88.14-1.68 0-3.04-.05-4.05-.14-1.02-.09-1.86-.25-2.47-.47-.63-.22-1.09-.51-1.41-.87-.29-.37-.52-.82-.69-1.38l-6.05-16.74c-.85-2.46-1.74-4.51-2.67-6.14-.93-1.64-1.96-3.01-3.09-4.03-1.11-1.01-2.4-1.74-3.83-2.18-1.44-.41-3.05-.63-4.83-.63h-3.43v30.15c0 .41-.12.76-.36 1.06-.22.3-.63.54-1.2.76-.58.22-1.35.38-2.32.47-.95.09-2.21.14-3.69.14-1.47 0-2.7-.05-3.69-.14-.98-.09-1.76-.25-2.34-.47-.57-.22-.99-.46-1.24-.76-.26-.3-.38-.65-.38-1.06v-71.06c0-.42.12-.76.38-1.07.25-.29.67-.53 1.24-.73.58-.18 1.36-.34 2.34-.44.99-.09 2.22-.14 3.69-.14 1.48 0 2.74.05 3.69.14.97.1 1.74.24 2.32.44.57.2.98.44 1.2.73.24.28.36.64.36 1.07v28.18h3.43c1.74 0 3.28-.24 4.59-.7 1.33-.46 2.52-1.19 3.59-2.2 1.07-1 2.05-2.31 2.92-3.92.87-1.6 1.69-3.58 2.53-5.94l5.06-14.96c.19-.54.42-1 .69-1.36.28-.37.71-.66 1.3-.86.6-.22 1.4-.38 2.39-.48.96-.09 2.29-.14 3.97-.14 1.5 0 2.75.05 3.71.14 1.01.1 1.76.24 2.32.42.57.17.95.4 1.14.69.19.3.29.66.29 1.07 0 .5-.08 1.13-.25 1.86-.19.73-.48 1.71-.92 2.9l-5.03 13.34c-.93 2.47-1.87 4.6-2.79 6.32-.93 1.74-1.91 3.23-2.94 4.45-1.01 1.22-2.1 2.21-3.25 2.98a17.2 17.2 0 0 1-3.78 1.92v.04c1.54.68 2.95 1.41 4.2 2.25 1.27.85 2.46 1.89 3.56 3.17s2.17 2.85 3.17 4.71c1 1.87 2.03 4.15 3.07 6.86l6.17 15.6c.63 1.58.99 2.67 1.11 3.28.12.6.18 1.1.18 1.49zM1478.13 830.17c0 6.23-.76 11.79-2.32 16.71-1.54 4.92-3.84 9.1-6.91 12.51-3.05 3.42-6.84 6.05-11.35 7.85-4.5 1.8-9.72 2.69-15.64 2.69-5.85 0-10.95-.77-15.28-2.3-4.37-1.52-7.99-3.85-10.9-6.99-2.9-3.13-5.08-7.12-6.52-11.96-1.45-4.83-2.18-10.55-2.18-17.18 0-6.06.77-11.53 2.31-16.39 1.55-4.86 3.85-8.98 6.91-12.39 3.07-3.41 6.85-6.02 11.35-7.82 4.51-1.83 9.75-2.74 15.72-2.74 5.68 0 10.69.76 15.06 2.26 4.33 1.5 7.98 3.82 10.9 6.97 2.93 3.13 5.12 7.08 6.61 11.86 1.49 4.8 2.24 10.43 2.24 16.92zm-16.05.78c0-3.95-.31-7.54-.93-10.76-.62-3.24-1.67-6.01-3.15-8.31-1.49-2.3-3.47-4.09-5.94-5.35-2.49-1.24-5.58-1.89-9.29-1.89-3.74 0-6.87.72-9.37 2.13a17.19 17.19 0 0 0-6.1 5.66c-1.55 2.37-2.63 5.12-3.26 8.27-.65 3.17-.96 6.49-.96 10.02 0 4.11.31 7.8.93 11.07.61 3.27 1.67 6.06 3.13 8.4 1.47 2.32 3.43 4.08 5.9 5.31 2.49 1.21 5.59 1.83 9.34 1.83s6.87-.7 9.37-2.11c2.52-1.38 4.57-3.28 6.1-5.68 1.55-2.4 2.64-5.19 3.28-8.39.64-3.19.95-6.6.95-10.2zM1617.83 866.55c0 .37-.1.73-.31 1.04-.22.3-.61.56-1.17.76-.56.17-1.3.33-2.25.46-.93.11-2.12.17-3.54.17-1.41 0-2.58-.06-3.5-.17-.94-.13-1.67-.29-2.23-.46-.53-.2-.93-.46-1.15-.76-.24-.31-.36-.67-.36-1.04v-61.19h-.11l-21.7 61.13c-.16.49-.4.91-.77 1.25-.35.34-.81.58-1.42.78-.59.18-1.36.32-2.28.37-.93.07-2.06.09-3.36.09-1.33 0-2.44-.05-3.38-.14-.92-.09-1.7-.25-2.29-.47-.6-.22-1.07-.48-1.43-.78-.34-.31-.58-.69-.69-1.1l-20.95-61.13h-.12v61.19c0 .37-.11.73-.32 1.04-.21.3-.61.56-1.19.76-.59.17-1.35.33-2.26.46-.91.11-2.08.17-3.51.17-1.4 0-2.56-.06-3.51-.17-.92-.13-1.68-.29-2.24-.46-.55-.2-.95-.46-1.17-.76-.21-.31-.31-.67-.31-1.04v-66.98c0-1.98.51-3.48 1.57-4.54 1.04-1.05 2.43-1.56 4.19-1.56h10c1.78 0 3.33.14 4.59.44 1.29.29 2.4.77 3.33 1.45.92.67 1.71 1.56 2.32 2.66.62 1.12 1.17 2.49 1.63 4.1l16.2 44.79h.23l16.76-44.68c.5-1.63 1.05-3 1.65-4.13.61-1.11 1.31-2.01 2.11-2.71a7.03 7.03 0 0 1 2.81-1.48c1.09-.3 2.35-.44 3.77-.44h10.32c1.05 0 1.93.14 2.69.42.75.25 1.39.64 1.87 1.19.49.5.85 1.15 1.11 1.9.25.75.37 1.62.37 2.59v66.98zM1732.06 866.67c0 .37-.12.7-.35 1-.22.3-.63.54-1.22.74-.56.18-1.34.34-2.33.43-.99.1-2.22.15-3.67.15-1.47 0-2.69-.05-3.68-.15-1-.09-1.77-.25-2.34-.43-.58-.2-.98-.44-1.25-.74-.26-.3-.38-.63-.38-1v-60.48h-28.07v60.48c0 .37-.11.7-.37 1-.26.3-.68.54-1.25.74-.57.18-1.34.34-2.32.43-.95.1-2.19.15-3.68.15-1.47 0-2.7-.05-3.69-.15-.99-.09-1.76-.25-2.34-.43-.57-.2-.99-.44-1.21-.74-.24-.3-.35-.63-.35-1v-68.39c0-1.62.42-2.83 1.22-3.62.82-.79 1.88-1.19 3.23-1.19h49.64c1.4 0 2.47.4 3.24 1.19.78.79 1.17 2 1.17 3.62v68.39zM1849.31 862.93c.46 1.39.75 2.51.87 3.31.11.82-.04 1.44-.45 1.85-.45.4-1.2.66-2.29.75-1.07.09-2.57.14-4.45.14-1.99 0-3.54-.02-4.63-.09-1.1-.05-1.94-.17-2.52-.35-.58-.17-.99-.41-1.22-.73-.23-.3-.43-.72-.58-1.21l-4.93-15.1h-28.34l-4.74 14.69c-.15.55-.36 1-.61 1.36-.23.38-.65.65-1.22.88-.55.21-1.34.35-2.37.43-1.02.07-2.38.12-4.05.12-1.78 0-3.16-.06-4.18-.17-1.01-.12-1.7-.4-2.08-.84-.39-.46-.53-1.09-.41-1.9.11-.81.41-1.89.87-3.26l23.16-66.69c.2-.64.48-1.19.81-1.58.29-.42.78-.71 1.46-.93.69-.22 1.62-.36 2.84-.42 1.18-.06 2.77-.08 4.74-.08 2.29 0 4.11.02 5.46.08 1.36.06 2.42.2 3.17.42.75.22 1.29.53 1.62.95.32.43.62 1.01.84 1.75l23.23 66.62zm-34.49-55.17h-.06l-10.46 31.98h21.09l-10.57-31.98zM1957.75 866.55c0 .37-.13.73-.37 1.04-.27.3-.68.56-1.25.76-.59.17-1.35.33-2.32.46-.95.11-2.18.17-3.63.17-1.51 0-2.75-.06-3.74-.17-1-.13-1.76-.29-2.32-.46-.56-.2-.95-.46-1.21-.76-.26-.31-.38-.67-.38-1.04v-30.38h-28.18v30.38c0 .37-.12.73-.36 1.04-.22.3-.63.56-1.21.76-.57.17-1.35.33-2.32.46-.95.11-2.2.17-3.69.17-1.47 0-2.69-.06-3.68-.17-.99-.13-1.76-.29-2.34-.46-.58-.2-.99-.46-1.25-.76-.26-.31-.38-.67-.38-1.04v-71c0-.37.12-.73.38-1.05.26-.3.67-.55 1.25-.75.58-.2 1.35-.35 2.34-.46.99-.12 2.21-.18 3.68-.18 1.49 0 2.74.06 3.69.18.97.11 1.75.28 2.32.46.58.2.99.45 1.21.75.24.32.36.68.36 1.05v27.65h28.18v-27.65c0-.37.12-.73.38-1.05.26-.3.65-.55 1.21-.75.56-.18 1.32-.35 2.32-.46.99-.12 2.23-.18 3.74-.18 1.45 0 2.68.06 3.63.18.97.11 1.73.26 2.32.46.57.2.98.45 1.25.75.24.32.37.68.37 1.05v71zM2074.58 866.67c0 .37-.12.7-.38 1-.25.3-.67.54-1.24.74-.58.18-1.38.34-2.36.43-1 .1-2.23.15-3.7.15-1.46 0-2.69-.05-3.67-.15-1-.09-1.77-.25-2.33-.43-.57-.2-.96-.44-1.19-.74-.23-.3-.36-.63-.36-1v-39.63c0-1.51.02-2.99.07-4.43.04-1.46.1-2.76.18-3.88h-.12c-.32.54-.68 1.18-1.12 1.89-.43.71-.89 1.46-1.36 2.27-.5.79-1.01 1.59-1.55 2.43-.55.84-1.09 1.64-1.61 2.41l-26.12 38.99c-.31.42-.63.8-.94 1.09-.34.32-.75.56-1.29.74-.52.17-1.15.29-1.9.35-.75.07-1.75.09-2.94.09-1.51 0-2.73-.05-3.65-.15-.92-.09-1.66-.25-2.17-.43-.54-.2-.89-.47-1.08-.76-.19-.31-.3-.69-.3-1.11v-71.11c0-.37.12-.71.38-1.01.25-.29.68-.54 1.26-.73.61-.18 1.4-.34 2.37-.44.95-.09 2.18-.13 3.65-.13 1.49 0 2.73.04 3.69.13.96.1 1.74.26 2.31.44.57.19.99.44 1.21.73.24.3.36.64.36 1.01v39.85c0 1.24-.01 2.56-.06 3.95-.05 1.41-.1 2.76-.18 4.07h.12c.67-1.16 1.51-2.57 2.52-4.19 1.01-1.62 2.05-3.21 3.13-4.75l26.14-38.99c.28-.38.55-.71.87-1.01.32-.29.73-.53 1.25-.73a8.13 8.13 0 0 1 1.94-.4c.78-.07 1.76-.11 2.98-.11 1.46 0 2.66.04 3.56.13.92.1 1.63.26 2.18.44.55.19.91.44 1.13.73.22.3.32.65.32 1.07v71.18zM2182.13 866.67c0 .37-.12.7-.35 1-.22.3-.61.54-1.2.74-.55.18-1.32.34-2.31.43-1 .1-2.23.15-3.68.15-1.51 0-2.76-.05-3.74-.15-.96-.09-1.74-.25-2.34-.43-.6-.2-1.02-.44-1.25-.74-.23-.3-.35-.63-.35-1v-28.14h-5.64c-2.32 0-4.12.26-5.32.7a9.07 9.07 0 0 0-3.26 2.16c-.95.96-1.8 2.18-2.55 3.63-.72 1.44-1.44 3.16-2.13 5.13l-5.71 16.28c-.21.45-.44.85-.76 1.18-.31.33-.8.6-1.43.81-.63.22-1.46.36-2.52.45-1.04.07-2.37.12-4 .12-1.77 0-3.17-.07-4.2-.19-1.02-.12-1.8-.27-2.36-.5-.53-.21-.87-.44-1.03-.71-.15-.28-.23-.57-.23-.87 0-.39.06-.87.2-1.43.14-.58.41-1.4.85-2.53l5.63-14.76c.73-1.93 1.48-3.62 2.26-5.06.77-1.43 1.62-2.72 2.58-3.86.95-1.13 1.95-2.11 3-2.88 1.07-.77 2.24-1.38 3.52-1.86-2.41-.65-4.53-1.5-6.37-2.58-1.84-1.07-3.39-2.36-4.66-3.88-1.25-1.53-2.2-3.29-2.85-5.3-.63-1.98-.96-4.22-.96-6.7 0-3.39.6-6.49 1.77-9.25 1.2-2.78 2.95-5.14 5.27-7.05 2.32-1.95 5.23-3.46 8.7-4.51 3.47-1.07 8.31-1.6 14.51-1.6h18.43c1.26 0 2.3.38 3.18 1.13.87.75 1.3 1.99 1.3 3.68v68.39zm-15.22-61.42h-7.88c-3.3 0-5.78.24-7.41.75-1.64.49-2.97 1.22-3.99 2.18a8.177 8.177 0 0 0-2.26 3.42c-.46 1.33-.7 2.82-.7 4.45 0 1.57.27 3.02.76 4.38.52 1.32 1.29 2.49 2.34 3.46 1.05.99 2.4 1.77 4.02 2.31 1.65.52 3.98.8 7.02.8h8.1v-21.75z"/></g></g></svg>